<svg xmlns="http://www.w3.org/2000/svg" width="1200" height="630" viewBox="0 0 1200 630" role="img" aria-labelledby="title desc">
<title id="title">일배책 누수 보험 처리, 아랫집 피해 접수 순서</title><desc id="desc">보험 증권, 누수 피해 사진, 접수 순서를 표현한 세이빙이오 대표 이미지</desc>
<defs><linearGradient id="bg" x1="0" y1="0" x2="1" y2="1"><stop stop-color="#edf4ff"/><stop offset="1" stop-color="#dbe8f8"/></linearGradient><filter id="s"><feDropShadow dx="0" dy="12" stdDeviation="14" flood-opacity=".14"/></filter></defs>
<rect width="1200" height="630" rx="36" fill="url(#bg)"/><circle cx="1090" cy="80" r="150" fill="#ccdcf1"/><circle cx="1030" cy="590" r="170" fill="#c7d9ef"/>
<g transform="translate(70 65)"><rect width="150" height="50" rx="25" fill="#274c77"/><text x="75" y="33" text-anchor="middle" font-family="Arial,sans-serif" font-weight="700" font-size="22" fill="white">누수 보험</text></g>
<text x="70" y="185" font-family="Arial,sans-serif" font-weight="800" font-size="55" fill="#203b5d">일배책 누수 보험 처리</text><text x="70" y="252" font-family="Arial,sans-serif" font-weight="800" font-size="45" fill="#203b5d">아랫집 피해 접수 순서</text>
<g filter="url(#s)" transform="translate(690 90)"><rect width="410" height="430" rx="28" fill="white"/><rect x="55" y="45" width="300" height="250" rx="20" fill="#f7faff" stroke="#9ab4d2" stroke-width="4"/><rect x="90" y="82" width="230" height="28" rx="14" fill="#274c77"/><rect x="90" y="135" width="180" height="14" rx="7" fill="#b7c9de"/><rect x="90" y="170" width="210" height="14" rx="7" fill="#b7c9de"/><rect x="90" y="205" width="145" height="14" rx="7" fill="#b7c9de"/><circle cx="290" cy="245" r="40" fill="#4aa3c0"/><path d="M270 245l14 14 27-32" fill="none" stroke="white" stroke-width="9" stroke-linecap="round" stroke-linejoin="round"/><rect x="65" y="335" width="120" height="42" rx="21" fill="#e8f0f9"/><text x="125" y="363" text-anchor="middle" font-family="Arial,sans-serif" font-size="19" font-weight="700" fill="#274c77">특약 확인</text><rect x="225" y="335" width="120" height="42" rx="21" fill="#e8f0f9"/><text x="285" y="363" text-anchor="middle" font-family="Arial,sans-serif" font-size="19" font-weight="700" fill="#274c77">사고 접수</text></g>
<g transform="translate(70 335)"><rect width="520" height="165" rx="24" fill="white" opacity=".97"/><text x="34" y="48" font-family="Arial,sans-serif" font-size="24" font-weight="700" fill="#203b5d">① 가족 보험의 일배책 특약 확인</text><text x="34" y="91" font-family="Arial,sans-serif" font-size="24" font-weight="700" fill="#203b5d">② 원인·피해·비용 자료 분리</text><text x="34" y="134" font-family="Arial,sans-serif" font-size="24" font-weight="700" fill="#203b5d">③ 합의 전 보험사 담당자 확인</text></g>
<text x="70" y="575" font-family="Arial,sans-serif" font-size="28" font-weight="800" fill="#274c77">Savingio</text><text x="205" y="575" font-family="Arial,sans-serif" font-size="21" fill="#60758f">돈이 되는 생활정보</text>
</svg>