<svg xmlns="http://www.w3.org/2000/svg" width="1200" height="630" viewBox="0 0 1200 630" role="img" aria-labelledby="title desc">
<title id="title">우리 집 누수 의심될 때 셀프 체크 순서</title><desc id="desc">수도계량기, 싱크대 하부 배관, 세탁기 호스와 바닥 물자국을 점검하는 세이빙이오 대표 이미지</desc>
<defs><linearGradient id="bg" x1="0" y1="0" x2="1" y2="1"><stop stop-color="#f1faf6"/><stop offset="1" stop-color="#dcefe7"/></linearGradient><filter id="shadow"><feDropShadow dx="0" dy="14" stdDeviation="18" flood-color="#214d40" flood-opacity=".16"/></filter></defs>
<rect width="1200" height="630" rx="36" fill="url(#bg)"/><circle cx="1080" cy="90" r="175" fill="#cce9dc"/><circle cx="1030" cy="590" r="210" fill="#c7e5d8" opacity=".8"/>
<g transform="translate(64 56)"><rect width="190" height="50" rx="25" fill="#286b57"/><text x="95" y="33" text-anchor="middle" font-family="Arial,sans-serif" font-weight="700" font-size="21" fill="#fff">누수 셀프 체크</text></g>
<text x="64" y="176" font-family="Arial,sans-serif" font-weight="800" font-size="54" fill="#214d40">우리 집 누수가 의심될 때</text><text x="64" y="244" font-family="Arial,sans-serif" font-weight="800" font-size="47" fill="#214d40">업체 부르기 전 확인할 5가지</text>
<g transform="translate(650 70)" filter="url(#shadow)"><rect width="470" height="485" rx="30" fill="#fff"/><g transform="translate(44 35)"><circle cx="118" cy="118" r="92" fill="#edf7f2" stroke="#8fc4b0" stroke-width="5"/><circle cx="118" cy="118" r="58" fill="#fff" stroke="#8fc4b0" stroke-width="5"/><path d="M118 118l34-24" stroke="#286b57" stroke-width="9" stroke-linecap="round"/><circle cx="118" cy="118" r="8" fill="#286b57"/><path d="M48 225h140" stroke="#5c8476" stroke-width="18" stroke-linecap="round"/><path d="M118 225v55" stroke="#5c8476" stroke-width="18" stroke-linecap="round"/><circle cx="118" cy="300" r="30" fill="#286b57"/><path d="M103 300h30M118 285v30" stroke="#fff" stroke-width="7" stroke-linecap="round"/><text x="118" y="352" text-anchor="middle" font-family="Arial,sans-serif" font-size="18" font-weight="700" fill="#286b57">수도계량기</text></g><g transform="translate(270 45)"><rect width="150" height="115" rx="18" fill="#eaf5f0"/><path d="M34 25h82v28H34z" fill="#fff" stroke="#6c9b89" stroke-width="5"/><path d="M75 53v34M45 87h60" stroke="#286b57" stroke-width="10" stroke-linecap="round"/><circle cx="46" cy="89" r="10" fill="#43a488"/><circle cx="104" cy="89" r="10" fill="#43a488"/><text x="75" y="108" text-anchor="middle" font-family="Arial,sans-serif" font-size="15" font-weight="700" fill="#286b57">싱크대 하부</text></g><g transform="translate(270 180)"><rect width="150" height="115" rx="18" fill="#eaf5f0"/><rect x="36" y="22" width="78" height="64" rx="12" fill="#fff" stroke="#6c9b89" stroke-width="5"/><circle cx="75" cy="53" r="19" fill="#dcefe7" stroke="#43a488" stroke-width="5"/><path d="M114 44c26 0 26 34 0 34" fill="none" stroke="#286b57" stroke-width="9" stroke-linecap="round"/><text x="75" y="108" text-anchor="middle" font-family="Arial,sans-serif" font-size="15" font-weight="700" fill="#286b57">세탁기 호스</text></g><g transform="translate(270 315)"><rect width="150" height="115" rx="18" fill="#eaf5f0"/><path d="M30 77c24-35 49-35 73 0 13-20 26-20 39 0" fill="#93d6c0"/><path d="M76 25c-18 26-26 40-26 52a26 26 0 0 0 52 0c0-12-8-26-26-52z" fill="#43a488"/><text x="75" y="108" text-anchor="middle" font-family="Arial,sans-serif" font-size="15" font-weight="700" fill="#286b57">바닥 물자국</text></g></g>
<g transform="translate(64 325)" filter="url(#shadow)"><rect width="520" height="170" rx="24" fill="#fff"/><text x="30" y="48" font-family="Arial,sans-serif" font-size="24" font-weight="700" fill="#214d40">① 모든 수도를 잠그고 계량기 확인</text><text x="30" y="93" font-family="Arial,sans-serif" font-size="24" font-weight="700" fill="#214d40">② 싱크대·세면대·세탁기 주변 점검</text><text x="30" y="138" font-family="Arial,sans-serif" font-size="24" font-weight="700" fill="#214d40">③ 이상 지속 시 관리실·전문가 호출</text></g>
<text x="64" y="578" font-family="Arial,sans-serif" font-size="28" font-weight="800" fill="#286b57">Savingio</text><text x="200" y="578" font-family="Arial,sans-serif" font-size="20" fill="#607d72">돈이 되는 생활정보</text>
</svg>